<svg width="30" height="30" viewBox="0 0 30 30" fill="none" xmlns="http://www.w3.org/2000/svg">
<g clip-path="url(#clip0)">
<path d="M15 30C23.2968 30 30 23.3045 30 15C30 6.69545 23.3045 0 15 0C6.69545 0 0 6.69545 0 15C0 23.3045 6.70308 30 15 30ZM15 2.00569C22.1988 2.00569 27.9944 7.80128 27.9944 15.0001C27.9944 22.1989 22.1987 27.9945 15 27.9945C7.80128 27.9945 2.0056 22.1989 2.0056 15.0001C2.0056 7.80128 7.8012 2.00569 15 2.00569Z" fill="black"/>
<path d="M9.502 15.6024L16.0983 22.1987C16.4948 22.5952 17.0973 22.5952 17.5014 22.1987C17.898 21.8022 17.898 21.1997 17.5014 20.7955L11.7059 14.9999L17.5014 9.20433C17.898 8.80782 17.898 8.20534 17.5014 7.80121C17.3032 7.60295 17.1049 7.50383 16.7998 7.50383C16.6016 7.50383 16.2965 7.60295 15.9992 7.70208L9.502 14.1993C9.30374 14.3975 9.20452 14.5958 9.20452 14.9009C9.20452 15.1983 9.30365 15.4041 9.502 15.6024Z" fill="black"/>
</g>
<defs>
<clipPath id="clip0">
<rect x="30" y="30" width="30" height="30" transform="rotate(180 30 30)" fill="white"/>
</clipPath>
</defs>
</svg>
