<svg width="302" height="488" viewBox="0 0 302 488" fill="none" xmlns="http://www.w3.org/2000/svg">
<path d="M17.3315 0.920615C13.2845 2.97487 11.5772 5.52498 6.99277 16.0796C-0.310721 32.9386 -0.72174 36.268 0.57455 68.2152C1.52306 90.8828 5.03252 176.807 6.89792 221.93C7.75157 243.323 8.82655 269.674 9.26918 280.37C9.71182 291.066 10.9133 320.393 11.9566 345.539C13 370.686 14.0433 393.071 14.3279 395.337C16.2249 411.346 22.8012 423.389 29.6304 423.459C30.5473 423.459 35.8906 422.184 41.4867 420.626C75.5697 411.276 113.289 403.484 147.751 398.667C159.007 397.108 185.47 394.912 202.796 393.992L211.996 393.496L222.556 413.897C228.374 425.16 234.033 436.281 235.171 438.618C236.31 441.027 238.807 446.198 240.704 450.094C242.633 454.061 247.597 464.332 251.77 472.903C255.944 481.545 259.39 488.275 259.453 487.991C259.516 487.637 258.473 474.32 257.177 458.453C255.849 442.514 254.647 427.568 254.458 425.23C253.762 416.801 251.928 394.7 251.739 392.787L251.549 390.875L263.058 391.016C273.112 391.087 274.787 390.946 276.59 389.883C279.309 388.254 282.407 384.499 284.525 380.391C285.474 378.549 287.055 375.645 288.066 373.945C291.133 368.774 293.315 360.557 293.789 352.623C293.916 350.852 294.358 337.181 294.769 322.163C295.212 307.146 295.907 283.062 296.35 268.682C296.761 254.231 297.551 227.668 298.089 209.534C299.891 147.977 300.934 112.205 301.567 91.5911C302.104 72.9612 302.136 70.5528 301.693 66.4442C300.46 54.5437 295.813 43.9183 289.616 38.8181C286.928 36.6221 284.683 35.8429 271.215 32.0886C223.979 19.1256 172.918 9.49181 127.042 4.81661C123.121 4.46243 118.284 3.96658 116.292 3.75407C108.609 2.97487 95.8677 1.98316 87.5209 1.55814C82.7467 1.34563 78.2571 1.06229 77.5616 0.920615C76.866 0.778942 63.4921 0.495597 47.8417 0.212251C23.3071 -0.071094 19.102 -0.000257597 17.3315 0.920615ZM84.8334 6.23334C120.276 8.2876 153.221 12.0419 187.746 17.9922C225.054 24.3674 283.45 38.4639 288.383 42.289C294.643 47.1059 299.164 58.4397 299.575 70.1986C299.67 72.607 299.417 84.6492 299.069 96.9039C298.69 109.159 296.919 170.999 295.085 234.326C293.283 297.654 291.702 350.852 291.576 352.623C290.975 362.894 286.96 372.67 281.648 376.849L279.593 378.478L263.88 378.266C250.506 378.053 248.134 378.195 248.134 378.974C248.134 379.541 249.557 399.021 251.296 422.255C253.035 445.419 254.458 465.04 254.458 465.749C254.426 466.67 253.952 465.89 252.782 463.057C251.865 460.861 243.676 440.956 234.539 418.926L217.94 378.762L211.459 379.187C191.951 380.391 182.688 381.099 172.57 382.091C130.678 386.058 86.5407 393.921 44.9962 404.688C34.0568 407.521 32.634 407.663 30.0098 405.821C24.793 402.209 20.8093 391.654 19.8608 378.974C19.6711 376.353 18.4064 345.185 17.0153 309.767C15.6242 274.278 12.6522 198.342 10.3758 140.893C6.83468 51.1436 6.2972 35.8429 6.58175 32.3011C7.75157 18.1338 12.336 8.35843 19.1653 5.52498C20.9674 4.74578 68.203 5.24163 84.8334 6.23334Z" fill="#7B9630" fill-opacity="0.5"/>
</svg>
