<svg width="30" height="30" viewBox="0 0 30 30" fill="none" xmlns="http://www.w3.org/2000/svg">
<g clip-path="url(#clip0)">
<path d="M17.0254 29.9416H12.2118C11.4078 29.9416 10.7537 29.2888 10.7537 28.4864V17.6502H7.94536C7.14133 17.6502 6.48728 16.9972 6.48728 16.1949V11.5516C6.48728 10.7492 7.14133 10.0964 7.94536 10.0964H10.7537V7.77118C10.7537 5.46565 11.4791 3.50414 12.8512 2.09903C14.2295 0.687515 16.1556 -0.0584106 18.4214 -0.0584106L22.0925 -0.0524597C22.8951 -0.0510864 23.548 0.601685 23.548 1.40277V5.71399C23.548 6.51645 22.8942 7.16922 22.0904 7.16922L19.6187 7.17014C18.8649 7.17014 18.6729 7.32097 18.6319 7.3672C18.5642 7.44388 18.4837 7.66063 18.4837 8.25916V10.0962H21.9047C22.1622 10.0962 22.4117 10.1596 22.6261 10.279C23.0887 10.537 23.3763 11.0247 23.3763 11.5519L23.3744 16.1952C23.3744 16.9972 22.7204 17.65 21.9164 17.65H18.4837V28.4864C18.4837 29.2888 17.8295 29.9416 17.0254 29.9416ZM12.5159 28.1829H16.7213V16.8628C16.7213 16.327 17.1582 15.8912 17.6949 15.8912H21.6123L21.6139 11.8551H17.6946C17.158 11.8551 16.7213 11.4193 16.7213 10.8835V8.25916C16.7213 7.57205 16.7913 6.79065 17.311 6.20334C17.9389 5.49335 18.9284 5.41141 19.6182 5.41141L21.7859 5.41049V1.70581L18.42 1.70032C14.7787 1.70032 12.5159 4.02667 12.5159 7.77118V10.8835C12.5159 11.4191 12.0793 11.8551 11.5426 11.8551H8.24945V15.8912H11.5426C12.0793 15.8912 12.5159 16.327 12.5159 16.8628V28.1829ZM22.089 1.70627H22.0893H22.089Z" fill="black"/>
</g>
<defs>
<clipPath id="clip0">
<rect y="0.000183105" width="30" height="30" fill="white"/>
</clipPath>
</defs>
</svg>
