<svg width="30" height="30" viewBox="0 0 30 30" fill="none" xmlns="http://www.w3.org/2000/svg">
<g clip-path="url(#clip0)">
<path d="M15.1812 24.3752C19.5212 24.3752 17.9737 21.6277 18.3087 20.8377C18.3037 20.2477 18.2987 19.6802 18.3187 19.3352C18.5937 19.4127 19.2425 19.7414 20.5825 21.0439C22.6512 23.1314 23.18 24.3752 24.8512 24.3752H27.9275C28.9025 24.3752 29.41 23.9714 29.6637 23.6327C29.9087 23.3052 30.1487 22.7302 29.8862 21.8352C29.2 19.6802 25.1975 15.9589 24.9487 15.5664C24.9862 15.4939 25.0462 15.3977 25.0775 15.3477H25.075C25.865 14.3039 28.88 9.78643 29.3237 7.97893C29.325 7.97643 29.3262 7.97268 29.3262 7.96893C29.5662 7.14393 29.3462 6.60893 29.1187 6.30643C28.7762 5.85393 28.2312 5.62518 27.495 5.62518H24.4187C23.3887 5.62518 22.6075 6.14393 22.2125 7.09018C21.5512 8.77143 19.6937 12.2289 18.3012 13.4527C18.2587 11.7189 18.2875 10.3952 18.31 9.41143C18.355 7.49268 18.5 5.62518 16.5087 5.62518H11.6737C10.4262 5.62518 9.23249 6.98768 10.525 8.60518C11.655 10.0227 10.9312 10.8127 11.175 14.7452C10.225 13.7264 8.53499 10.9752 7.33999 7.45893C7.00499 6.50768 6.49749 5.62643 5.06874 5.62643H1.99249C0.744992 5.62643 -7.62939e-06 6.30643 -7.62939e-06 7.44518C-7.62939e-06 10.0027 5.66124 24.3752 15.1812 24.3752ZM5.06874 7.50143C5.33999 7.50143 5.36749 7.50143 5.56874 8.07268C6.79249 11.6764 9.53749 17.0089 11.5425 17.0089C13.0487 17.0089 13.0487 15.4652 13.0487 14.8839L13.0475 10.2564C12.965 8.72518 12.4075 7.96268 12.0412 7.50018L16.4262 7.50518C16.4287 7.52643 16.4012 12.6239 16.4387 13.8589C16.4387 15.6127 17.8312 16.6177 20.005 14.4177C22.2987 11.8289 23.885 7.95893 23.9487 7.80143C24.0425 7.57643 24.1237 7.50018 24.4187 7.50018H27.495H27.5075C27.5062 7.50393 27.5062 7.50768 27.505 7.51143C27.2237 8.82393 24.4475 13.0064 23.5187 14.3052C23.5037 14.3252 23.49 14.3464 23.4762 14.3677C23.0675 15.0352 22.735 15.7727 23.5325 16.8102H23.5337C23.6062 16.8977 23.795 17.1027 24.07 17.3877C24.925 18.2702 27.8575 21.2877 28.1175 22.4877C27.945 22.5152 27.7575 22.4952 24.8512 22.5014C24.2325 22.5014 23.7487 21.5764 21.9025 19.7139C20.2425 18.0989 19.165 17.4389 18.1837 17.4389C16.2787 17.4389 16.4175 18.9852 16.435 20.8552C16.4412 22.8827 16.4287 22.2414 16.4425 22.3689C16.3312 22.4127 16.0125 22.5002 15.1812 22.5002C7.24999 22.5002 2.08499 9.91143 1.88624 7.50518C1.95499 7.49893 2.90124 7.50268 5.06874 7.50143Z" fill="black"/>
</g>
<defs>
<clipPath id="clip0">
<rect y="0.000183105" width="30" height="30" fill="white"/>
</clipPath>
</defs>
</svg>
