<svg width="30" height="30" viewBox="0 0 30 30" fill="none" xmlns="http://www.w3.org/2000/svg">
<g clip-path="url(#clip0)">
<path d="M15.2953 30.0002C15.1959 30.0002 15.0966 30.0002 14.9966 29.9997C12.645 30.0055 10.4723 29.9457 8.35922 29.8171C6.42197 29.6992 4.65363 29.0297 3.24509 27.8812C1.88599 26.773 0.95787 25.2745 0.486603 23.4278C0.0764466 21.8202 0.0547028 20.242 0.0338745 18.7156C0.0187683 17.6204 0.00320435 16.3227 0 15.0029C0.00320435 13.6777 0.0187683 12.3799 0.0338745 11.2847C0.0547028 9.75855 0.0764466 8.1804 0.486603 6.57251C0.95787 4.72589 1.88599 3.2274 3.24509 2.11915C4.65363 0.97062 6.42197 0.30114 8.35945 0.183266C10.4725 0.0548628 12.6457 -0.00510431 15.0023 0.000617742C17.3545 -0.00441766 19.5266 0.0548628 21.6396 0.183266C23.5769 0.30114 25.3452 0.97062 26.7538 2.11915C28.1131 3.2274 29.041 4.72589 29.5123 6.57251C29.9224 8.18018 29.9442 9.75855 29.965 11.2847C29.9801 12.3799 29.9959 13.6777 29.9989 14.9974V15.0029C29.9959 16.3227 29.9801 17.6204 29.965 18.7156C29.9442 20.2418 29.9226 21.8199 29.5123 23.4278C29.041 25.2745 28.1131 26.773 26.7538 27.8812C25.3452 29.0297 23.5769 29.6992 21.6396 29.8171C19.6161 29.9402 17.5374 30.0002 15.2953 30.0002ZM14.9966 27.656C17.3099 27.6615 19.4339 27.6031 21.4973 27.4777C22.9621 27.3886 24.2322 26.9133 25.2727 26.0648C26.2344 25.2804 26.8968 24.1983 27.2413 22.8483C27.5828 21.51 27.6025 20.0731 27.6215 18.6836C27.6363 17.5957 27.6519 16.3071 27.6551 15.0002C27.6519 13.693 27.6363 12.4047 27.6215 11.3168C27.6025 9.92723 27.5828 8.49031 27.2413 7.15181C26.8968 5.80186 26.2344 4.71971 25.2727 3.93533C24.2322 3.08709 22.9621 2.6117 21.4973 2.52267C19.4339 2.39701 17.3099 2.33911 15.0021 2.34414C12.6892 2.33865 10.565 2.39701 8.50159 2.52267C7.03674 2.6117 5.76668 3.08709 4.72618 3.93533C3.76442 4.71971 3.10204 5.80186 2.75757 7.15181C2.41608 8.49031 2.39639 9.927 2.3774 11.3168C2.36252 12.4056 2.34695 13.6949 2.34375 15.0029C2.34695 16.3053 2.36252 17.5948 2.3774 18.6836C2.39639 20.0731 2.41608 21.51 2.75757 22.8483C3.10204 24.1983 3.76442 25.2804 4.72618 26.0648C5.76668 26.913 7.03674 27.3884 8.50159 27.4775C10.565 27.6031 12.6897 27.6617 14.9966 27.656ZM14.9407 22.3244C10.9023 22.3244 7.6165 19.0388 7.6165 15.0002C7.6165 10.9616 10.9023 7.67595 14.9407 7.67595C18.9793 7.67595 22.2649 10.9616 22.2649 15.0002C22.2649 19.0388 18.9793 22.3244 14.9407 22.3244ZM14.9407 10.0197C12.1946 10.0197 9.96025 12.254 9.96025 15.0002C9.96025 17.7463 12.1946 19.9806 14.9407 19.9806C17.6871 19.9806 19.9212 17.7463 19.9212 15.0002C19.9212 12.254 17.6871 10.0197 14.9407 10.0197ZM23.0853 5.3322C22.1146 5.3322 21.3274 6.11909 21.3274 7.09001C21.3274 8.06093 22.1146 8.84783 23.0853 8.84783C24.0562 8.84783 24.8431 8.06093 24.8431 7.09001C24.8431 6.11909 24.0562 5.3322 23.0853 5.3322Z" fill="black"/>
</g>
<defs>
<clipPath id="clip0">
<rect y="0.000183105" width="30" height="30" fill="white"/>
</clipPath>
</defs>
</svg>
