<svg width="30" height="30" viewBox="0 0 30 30" fill="none" xmlns="http://www.w3.org/2000/svg">
<g clip-path="url(#clip0)">
<path d="M29.2133 23.1435L23.1412 19.0942C22.3706 18.5844 21.3377 18.7521 20.768 19.4796L18.9993 21.7537C18.772 22.0535 18.3588 22.1404 18.0299 21.9577L17.6935 21.7722C16.5781 21.1643 15.1904 20.4075 12.3943 17.6104C9.59817 14.8133 8.83979 13.4245 8.23185 12.3112L8.04737 11.9747C7.86218 11.6459 7.94748 11.231 8.24732 11.0019L10.5199 9.23364C11.2471 8.6639 11.4151 7.63128 10.9059 6.86048L6.85651 0.788373C6.33469 0.00345041 5.28777 -0.232179 4.47994 0.253433L1.94081 1.77869C1.143 2.24773 0.557672 3.00734 0.307573 3.89836C-0.606765 7.22986 0.0810821 12.9795 8.55085 21.4503C15.2884 28.1873 20.3041 29.999 23.7516 29.999C24.545 30.0024 25.3354 29.8992 26.1013 29.6921C26.9925 29.4423 27.7522 28.8569 28.221 28.0588L29.7478 25.5212C30.2341 24.7132 29.9986 23.6657 29.2133 23.1435ZM28.8863 25.0083L27.363 27.5474C27.0265 28.1234 26.4801 28.5469 25.8383 28.7292C22.7627 29.5736 17.3895 28.8742 9.2582 20.7429C1.12689 12.6116 0.427555 7.23888 1.27194 4.16287C1.45449 3.52031 1.87853 2.97319 2.45524 2.63609L4.99438 1.11282C5.34489 0.901911 5.79928 1.00414 6.02571 1.34476L8.22541 4.64725L10.0717 7.41633C10.2928 7.75068 10.2201 8.1988 9.90469 8.4462L7.63153 10.2144C6.93976 10.7434 6.74221 11.7005 7.16812 12.4601L7.34862 12.7881C7.98755 13.9599 8.78191 15.4176 11.682 18.3173C14.5821 21.2168 16.0394 22.0112 17.2107 22.6501L17.5391 22.8311C18.2986 23.2569 19.2558 23.0594 19.7848 22.3676L21.553 20.0945C21.8005 19.7792 22.2484 19.7067 22.5829 19.9275L28.6544 23.9769C28.9953 24.2032 29.0975 24.6578 28.8863 25.0083Z" fill="black" stroke="black"/>
<path d="M16.9994 5.00274C21.691 5.00796 25.4929 8.80995 25.4982 13.5015C25.4982 13.7776 25.722 14.0014 25.9981 14.0014C26.2742 14.0014 26.498 13.7776 26.498 13.5015C26.4922 8.25796 22.243 4.00867 16.9994 4.00293C16.7233 4.00293 16.4995 4.22672 16.4995 4.50284C16.4995 4.77895 16.7233 5.00274 16.9994 5.00274Z" fill="black" stroke="black"/>
<path d="M16.9994 8.00225C20.0351 8.00583 22.495 10.4658 22.4986 13.5015C22.4986 13.7776 22.7225 14.0014 22.9985 14.0014C23.2746 14.0014 23.4984 13.7776 23.4984 13.5015C23.4943 9.91383 20.587 7.00654 16.9994 7.00244C16.7233 7.00244 16.4995 7.22624 16.4995 7.50235C16.4995 7.77846 16.7233 8.00225 16.9994 8.00225Z" fill="black" stroke="black"/>
<path d="M16.9994 11.0018C18.3792 11.0034 19.4974 12.1216 19.4991 13.5014C19.4991 13.7775 19.7229 14.0013 19.999 14.0013C20.275 14.0013 20.4989 13.7775 20.4989 13.5014C20.4967 11.5696 18.9312 10.0041 16.9994 10.002C16.7233 10.002 16.4995 10.2257 16.4995 10.5019C16.4995 10.778 16.7233 11.0018 16.9994 11.0018Z" fill="black" stroke="black"/>
</g>
<defs>
<clipPath id="clip0">
<rect width="30" height="30" fill="white"/>
</clipPath>
</defs>
</svg>
