<svg width="30" height="30" viewBox="0 0 30 30" fill="none" xmlns="http://www.w3.org/2000/svg">
<path d="M25.4762 20.084L25.1789 19.5983C24.5979 18.6493 23.8947 17.779 23.0889 17.0117L22.0948 16.0652C22.0004 15.9752 21.9862 15.8323 22.0611 15.7255L23.4184 13.7914C23.6142 13.5125 23.7948 13.2188 23.9553 12.9185L25.1151 10.7483C25.3173 10.3702 25.3065 9.92467 25.0862 9.5567C24.866 9.18879 24.4784 8.96877 24.0496 8.9683L21.5391 8.96543C21.5386 8.96543 21.5381 8.96543 21.5376 8.96543C21.0117 8.96543 20.5354 9.2765 20.324 9.75814L20.0581 10.364C19.3797 11.9098 18.4537 13.3192 17.3049 14.5549V10.1319C17.3049 9.48838 16.7814 8.96484 16.138 8.96484H12.5824C11.9986 8.96484 11.5237 9.43981 11.5237 10.0236C11.5237 10.2466 11.5924 10.4602 11.7224 10.6411L11.9712 10.9877C12.2151 11.3273 12.344 11.7279 12.344 12.1462V15.3782C11.9056 14.8689 11.3717 14.1774 10.9198 13.3823C10.2277 12.1648 9.73166 10.745 9.49758 10.007C9.29983 9.38367 8.72772 8.96484 8.07387 8.96484H5.53125C5.17242 8.96484 4.84242 9.12891 4.62562 9.41496C4.409 9.70107 4.34051 10.0633 4.43783 10.4088L4.91215 12.0922C5.20283 13.1241 5.60244 14.1287 6.09984 15.078C6.24996 15.3646 6.60398 15.4753 6.89074 15.3251C7.17744 15.1749 7.28801 14.8208 7.13783 14.5341C6.67816 13.6567 6.30885 12.7282 6.04014 11.7745L5.57871 10.1367H8.07393C8.21473 10.1367 8.33795 10.227 8.38055 10.3613C8.62858 11.1431 9.15592 12.6506 9.90106 13.9614C10.5124 15.0369 11.2542 15.9329 11.7689 16.4952C12.0508 16.8032 12.4846 16.9046 12.874 16.7532C13.2639 16.6018 13.5159 16.2336 13.5159 15.8154V12.1462C13.5159 11.4812 13.3109 10.8442 12.9231 10.3042L12.8029 10.1367H16.133V14.8356C16.133 15.1794 16.3057 15.4955 16.5948 15.6814C16.8839 15.8673 17.2432 15.893 17.5559 15.7502L17.7975 15.64C17.9088 15.5892 18.0077 15.5184 18.0915 15.4294C19.3631 14.079 20.3858 12.5332 21.1313 10.8349L21.3972 10.229C21.4216 10.1732 21.4767 10.1372 21.5376 10.1372H21.5378L24.0482 10.1401C24.0568 10.1401 24.0697 10.1402 24.0808 10.1586C24.0918 10.177 24.0857 10.1884 24.0817 10.196L22.9219 12.366C22.7835 12.6248 22.6279 12.8779 22.4592 13.1183L21.102 15.0523C20.6911 15.6378 20.7689 16.4207 21.2868 16.9138L22.2808 17.8604C23.0128 18.5575 23.6517 19.3481 24.1795 20.2102L24.4768 20.6959C24.484 20.7076 24.5057 20.7431 24.4787 20.7915C24.4516 20.8398 24.4099 20.8398 24.3962 20.8398H22.2289C21.9504 20.8398 21.6793 20.7253 21.4852 20.5257L19.3181 18.2974C18.8074 17.7722 18.1593 17.4116 17.4438 17.2546C17.1231 17.1841 16.792 17.2617 16.536 17.4677C16.2799 17.6736 16.1331 17.9801 16.1331 18.3087V20.4981C16.1331 20.6865 15.9798 20.8399 15.7913 20.8399C14.1119 20.8399 12.4523 20.2779 11.1183 19.2577C10.5809 18.8466 10.0683 18.3933 9.59485 17.9104C9.36832 17.6794 8.99737 17.6756 8.76621 17.9021C8.53512 18.1287 8.53149 18.4997 8.75801 18.7308C9.2703 19.2533 9.82489 19.7437 10.4064 20.1885C11.9436 21.3642 13.856 22.0117 15.7913 22.0117C16.6259 22.0117 17.3049 21.3327 17.3049 20.4981V18.4266C17.7511 18.5457 18.1546 18.782 18.478 19.1145L20.6451 21.3428C21.0585 21.7679 21.6358 22.0117 22.2289 22.0117H24.3962C24.854 22.0117 25.2774 21.7637 25.501 21.3643C25.7247 20.965 25.7152 20.4744 25.4762 20.084Z" fill="black"/>
<path d="M8.20637 16.2629L8.19986 16.2539C8.01125 15.9909 7.64527 15.9305 7.38225 16.1191C7.11928 16.3077 7.05893 16.6737 7.24748 16.9367C7.24772 16.9371 7.25123 16.942 7.25147 16.9423L7.73018 16.6044L7.25399 16.9458C7.36842 17.1054 7.54824 17.1904 7.7307 17.1904C7.84883 17.1904 7.96818 17.1547 8.0716 17.0806C8.33457 16.8919 8.39492 16.5259 8.20637 16.2629Z" fill="black"/>
<path d="M12.0039 26.0156H7.22852C6.90496 26.0156 6.64258 26.2779 6.64258 26.6016C6.64258 26.9252 6.90496 27.1875 7.22852 27.1875H12.0039C12.3275 27.1875 12.5898 26.9252 12.5898 26.6016C12.5898 26.2779 12.3275 26.0156 12.0039 26.0156Z" fill="black"/>
<path d="M14.6696 26.0156H14.6626C14.339 26.0156 14.0767 26.2779 14.0767 26.6016C14.0767 26.9252 14.339 27.1875 14.6626 27.1875H14.6696C14.9932 27.1875 15.2555 26.9252 15.2555 26.6016C15.2555 26.2779 14.9931 26.0156 14.6696 26.0156Z" fill="black"/>
<path d="M26.1328 0H3.86719C1.73479 0 0 1.73479 0 3.86719V26.1328C0 28.2652 1.73479 30 3.86719 30H26.1328C28.2652 30 30 28.2652 30 26.1328V3.86719C30 1.73479 28.2652 0 26.1328 0ZM28.8281 26.1328C28.8281 27.619 27.619 28.8281 26.1328 28.8281H3.86719C2.38102 28.8281 1.17188 27.619 1.17188 26.1328V3.86719C1.17188 2.38102 2.38102 1.17188 3.86719 1.17188H26.1328C27.619 1.17188 28.8281 2.38102 28.8281 3.86719V26.1328Z" fill="black"/>
</svg>
