<svg width="100" height="49" viewBox="0 0 100 49" fill="none" xmlns="http://www.w3.org/2000/svg">
<path d="M67.0362 2.46189C65.1573 3.8158 63.3679 5.10259 63.0435 5.32637L62.462 5.72919L59.6213 4.63263L56.7806 3.54726L48.4598 5.95298C34.0885 10.1154 10.4122 16.9745 7.14654 17.9144C5.42423 18.4068 3.99269 18.832 3.97032 18.8544C3.94796 18.8655 3.97032 19.19 4.01506 19.5593L4.09335 20.2418H6.71037H9.3274V26.0156V31.7893L9.80831 31.7222C10.0655 31.6886 10.5912 31.6327 10.9826 31.5879L11.676 31.5096V25.9373V20.3537H29.1788H46.6815V24.8966V29.4395L47.1624 29.3836C47.4197 29.3388 48.0683 29.2829 48.6163 29.2381C49.5111 29.171 49.5893 29.1486 49.5893 28.9248C49.5893 28.8017 49.5893 26.4967 49.6005 23.8113V18.9327L59.9009 11.7827C65.5599 7.85518 70.2795 4.58787 70.3914 4.54311C70.5367 4.46479 72.9525 5.91941 80.8035 10.7868C86.429 14.2779 91.1151 17.2095 91.2269 17.3102C91.3723 17.4445 91.417 17.6571 91.417 18.3061C91.417 18.7537 91.4394 19.1229 91.473 19.1229C91.596 19.1229 95.8906 16.941 95.8906 16.8738C95.8906 16.8291 94.7946 16.0794 93.4637 15.1954C92.1216 14.3115 86.8205 10.798 81.6871 7.38522C71.4203 0.57088 70.5256 -0.0109685 70.4808 0.000219253C70.4585 0.000219253 68.9151 1.10797 67.0362 2.46189Z" fill="black"/>
<path d="M64.0165 16.1017V18.6753H67.3717H70.7269V16.1017V13.5282H67.3717H64.0165V16.1017Z" fill="black"/>
<path d="M71.7334 16.1017V18.6753H75.0326H78.3319V16.1017V13.5282H75.0326H71.7334V16.1017Z" fill="black"/>
<path d="M99.1786 15.5647C97.2438 17.8809 94.3025 20.5775 91.6183 22.4909C80.222 30.648 63.6139 33.7586 40.139 32.1362C36.6049 31.89 26.4834 31.8564 23.6427 32.0802C14.8634 32.774 8.18663 34.1614 2.93021 36.3769C2.20325 36.6903 1.61051 36.9588 1.63288 36.97C1.65524 36.9924 1.96839 36.9364 2.33746 36.8469C8.15308 35.4818 14.8858 34.6426 21.0705 34.4971C28.2281 34.3293 34.1108 34.9783 45.3395 37.1938C52.1393 38.5365 54.8905 38.9953 58.3463 39.3421C60.9522 39.5995 65.6717 39.5995 68.0427 39.3421C74.4846 38.626 81.1279 36.5895 86.2165 33.7474C93.8775 29.4731 98.7984 23.0168 99.872 15.8556C99.9615 15.2402 100.017 14.7143 99.9951 14.6919C99.9727 14.6695 99.6036 15.0611 99.1786 15.5647Z" fill="black"/>
<path d="M64.0165 22.144V24.7175H67.3717H70.7269V22.144V19.5704H67.3717H64.0165V22.144Z" fill="black"/>
<path d="M71.7334 22.144V24.7175H75.0326H78.3319V22.144V19.5704H75.0326H71.7334V22.144Z" fill="black"/>
<path d="M23.7546 27.1794V29.7529H27.1097H30.4649V27.1794V24.6058H27.1097H23.7546V27.1794Z" fill="black"/>
<path d="M31.4714 27.1794V29.7529H34.8266H38.1818V27.1794V24.6058H34.8266H31.4714V27.1794Z" fill="black"/>
<path d="M15.5904 36.7686C9.29384 37.1938 5.93867 37.8876 2.88548 39.3757C0.905929 40.338 3.55538e-05 41.4234 3.55538e-05 42.8445C-0.0111483 45.1942 2.61706 47.2083 6.64326 47.9468C7.41495 48.0923 8.2761 48.1482 9.77474 48.137C11.8438 48.137 12.9398 48.014 14.9193 47.5776L15.7581 47.3874L15.2548 47.2978C12.5595 46.7943 10.8372 46.302 9.6629 45.6866C8.39913 45.0152 7.98532 44.5341 7.98532 43.7284C7.98532 42.1843 10.3899 40.808 14.2595 40.1702C16.6193 39.7786 17.9949 39.689 21.3501 39.689C25.9802 39.689 30.4649 40.1031 35.3299 40.987C36.5042 41.1996 38.4614 41.5465 39.6916 41.7703C46.8269 43.0682 52.2847 43.583 57.8542 43.4823C62.0482 43.4151 64.0836 43.1801 66.1862 42.5423L66.8349 42.3409L63.8935 42.3297C57.3621 42.2962 50.7413 41.3898 39.3561 38.9841C34.1109 37.8764 28.1834 37.0931 22.804 36.8022C20.8691 36.7015 16.8318 36.6791 15.5904 36.7686Z" fill="black"/>
</svg>
