<svg width="20" height="20" viewBox="0 0 20 20" fill="none" xmlns="http://www.w3.org/2000/svg">
<g clip-path="url(#clip0)">
<path d="M19.4755 15.4294L15.4274 12.7298C14.9137 12.39 14.2251 12.5018 13.8453 12.9868L12.6662 14.5029C12.5146 14.7027 12.2392 14.7607 12.0199 14.6389L11.7956 14.5152C11.0521 14.1099 10.1269 13.6054 8.26282 11.7407C6.39876 9.87593 5.89317 8.95005 5.48788 8.20786L5.36489 7.98355C5.24143 7.76437 5.2983 7.48773 5.49819 7.33498L7.01328 6.15617C7.49805 5.77634 7.61003 5.08793 7.27059 4.57406L4.57098 0.525989C4.22311 0.00270717 3.52516 -0.154379 2.98661 0.169362L1.29385 1.1862C0.761977 1.49889 0.371761 2.0053 0.205028 2.59931C-0.40453 4.82031 0.0540344 8.65341 5.70054 14.3006C10.1922 18.7919 13.5361 19.9997 15.8344 19.9997C16.3633 20.002 16.8902 19.9332 17.4008 19.7951C17.995 19.6286 18.5015 19.2383 18.814 18.7063L19.8318 17.0146C20.156 16.4759 19.999 15.7775 19.4755 15.4294ZM19.2575 16.6726L18.242 18.3653C18.0176 18.7493 17.6534 19.0317 17.2255 19.1532C15.1751 19.7161 11.593 19.2499 6.17212 13.829C0.751237 8.40814 0.285016 4.82633 0.847941 2.77565C0.969642 2.34728 1.25233 1.98253 1.63681 1.7578L3.32957 0.742285C3.56324 0.601681 3.86617 0.669835 4.01712 0.89691L5.48358 3.09858L6.71442 4.94463C6.86182 5.16753 6.81339 5.46627 6.60311 5.63121L5.08767 6.81002C4.62648 7.16266 4.49479 7.80073 4.77873 8.30714L4.89906 8.52578C5.32501 9.30699 5.85458 10.2788 7.78797 12.2119C9.72136 14.1449 10.6929 14.6746 11.4738 15.1005L11.6927 15.2211C12.1991 15.505 12.8372 15.3734 13.1898 14.9122L14.3686 13.3967C14.5336 13.1866 14.8322 13.1382 15.0552 13.2854L19.1029 15.985C19.3302 16.1359 19.3983 16.4389 19.2575 16.6726Z" fill="black" stroke="black"/>
<path d="M11.3327 3.335C14.4604 3.33847 16.995 5.87314 16.9986 9.00084C16.9986 9.18491 17.1478 9.33411 17.3318 9.33411C17.5159 9.33411 17.6651 9.18491 17.6651 9.00084C17.6612 5.50515 14.8284 2.67228 11.3327 2.66846C11.1486 2.66846 10.9995 2.81765 10.9995 3.00173C10.9995 3.1858 11.1486 3.335 11.3327 3.335Z" fill="black" stroke="black"/>
<path d="M11.3327 5.33475C13.3565 5.33714 14.9965 6.97713 14.9989 9.00089C14.9989 9.18496 15.1481 9.33416 15.3321 9.33416C15.5162 9.33416 15.6654 9.18496 15.6654 9.00089C15.6626 6.60914 13.7244 4.67095 11.3327 4.66821C11.1486 4.66821 10.9995 4.81741 10.9995 5.00148C10.9995 5.18556 11.1486 5.33475 11.3327 5.33475Z" fill="black" stroke="black"/>
<path d="M11.3327 7.33451C12.2526 7.3356 12.998 8.08104 12.9992 9.00094C12.9992 9.18502 13.1484 9.33421 13.3324 9.33421C13.5165 9.33421 13.6657 9.18502 13.6657 9.00094C13.6642 7.71309 12.6206 6.66941 11.3327 6.66797C11.1486 6.66797 10.9995 6.81717 10.9995 7.00124C10.9995 7.18531 11.1486 7.33451 11.3327 7.33451Z" fill="black" stroke="black"/>
</g>
<defs>
<clipPath id="clip0">
<rect width="20" height="20" fill="white"/>
</clipPath>
</defs>
</svg>
