<svg width="60" height="64" viewBox="0 0 60 64" fill="none" xmlns="http://www.w3.org/2000/svg">
<g filter="url(#filter0_d)">
<path d="M56.182 29.2137L49.1508 15.1512C48.8103 14.5537 48.3325 14.1797 47.5781 14.1797H12.4219C11.6869 14.1797 11.1954 14.5444 10.8492 15.1512L3.81796 29.2137C3.49241 29.9051 3.60386 30.5999 4.06523 31.1543L28.6746 59.3965C29.0086 59.7797 29.4914 60 30 60C30.5086 60 30.9914 59.7797 31.3254 59.3965L55.9348 31.1543C56.3932 30.6027 56.5096 29.9087 56.182 29.2137ZM44.734 17.6953L40.2469 26.6695L33.5156 17.6953H44.734ZM37.0312 28.2422H22.9687L30 18.8672L37.0312 28.2422ZM26.4844 17.6953L19.7531 26.6695L15.266 17.6953H26.4844ZM12.4219 19.868L16.609 28.2422H8.23476L12.4219 19.868ZM9.25429 31.7578H18.2918L26.9578 52.0758L9.25429 31.7578ZM30 50.2465L22.1144 31.7578H37.8855L30 50.2465ZM33.0422 52.0758L41.7082 31.7578H50.7457L33.0422 52.0758ZM43.391 28.2422L47.5781 19.868L51.7652 28.2422H43.391Z" fill="black"/>
<path d="M30 0C29.0292 0 28.2422 0.787031 28.2422 1.75781V5.39062C28.2422 6.36141 29.0292 7.14844 30 7.14844C30.9708 7.14844 31.7578 6.36141 31.7578 5.39062V1.75781C31.7578 0.787031 30.9708 0 30 0Z" fill="black"/>
<path d="M22.5422 7.75162L20.0563 5.26572C19.3699 4.57923 18.2569 4.57923 17.5704 5.26572C16.8839 5.9522 16.8839 7.06513 17.5704 7.75162L20.0563 10.2375C20.7427 10.924 21.8558 10.9241 22.5422 10.2375C23.2287 9.55103 23.2287 8.4381 22.5422 7.75162Z" fill="black"/>
<path d="M42.4295 5.26572C41.7431 4.57923 40.6301 4.57923 39.9436 5.26572L37.4577 7.75162C36.7712 8.4381 36.7712 9.55103 37.4577 10.2375C38.1441 10.924 39.2572 10.9241 39.9436 10.2375L42.4295 7.75162C43.116 7.06513 43.116 5.9522 42.4295 5.26572Z" fill="black"/>
</g>
<defs>
<filter id="filter0_d" x="-2" y="0" width="64" height="64" filterUnits="userSpaceOnUse" color-interpolation-filters="sRGB">
<feFlood flood-opacity="0" result="BackgroundImageFix"/>
<feColorMatrix in="SourceAlpha" type="matrix" values="0 0 0 0 0 0 0 0 0 0 0 0 0 0 0 0 0 0 127 0"/>
<feOffset dy="2"/>
<feGaussianBlur stdDeviation="1"/>
<feColorMatrix type="matrix" values="0 0 0 0 0.482353 0 0 0 0 0.588235 0 0 0 0 0.188235 0 0 0 0.8 0"/>
<feBlend mode="normal" in2="BackgroundImageFix" result="effect1_dropShadow"/>
<feBlend mode="normal" in="SourceGraphic" in2="effect1_dropShadow" result="shape"/>
</filter>
</defs>
</svg>
