<svg width="64" height="63" viewBox="0 0 64 63" fill="none" xmlns="http://www.w3.org/2000/svg">
<g filter="url(#filter0_d)">
<g clip-path="url(#clip0)">
<path d="M60.9924 26.8223L55.9237 22.2038V6.8894C55.9237 5.91498 55.1338 5.1249 54.1592 5.1249H41.9583C40.9839 5.1249 40.1938 5.91486 40.1938 6.8894V7.87072L34.0724 2.29295C32.8908 1.21611 31.1089 1.21623 29.9278 2.29283L3.00771 26.8224C2.06131 27.6849 1.74853 29.0138 2.21096 30.2078C2.67349 31.4019 3.79967 32.1733 5.08017 32.1733H9.37967V56.75C9.37967 57.7244 10.1696 58.5145 11.1442 58.5145H25.8996C26.874 58.5145 27.6641 57.7245 27.6641 56.75V41.8278H36.3361V56.7501C36.3361 57.7245 37.126 58.5146 38.1006 58.5146H52.8554C53.8298 58.5146 54.6199 57.7246 54.6198 56.7501V32.1734H58.9202C60.2006 32.1734 61.3269 31.4019 61.7894 30.2079C62.2517 29.0138 61.9391 27.6849 60.9924 26.8223ZM52.8554 28.6444C51.881 28.6444 51.0909 29.4344 51.0909 30.4089V54.9856H39.8652V40.0633C39.8652 39.0889 39.0751 38.2988 38.1007 38.2988H25.8996C24.9252 38.2988 24.1351 39.0888 24.1351 40.0633V54.9856H12.9085V30.4089C12.9085 29.4345 12.1186 28.6444 11.144 28.6444H6.2476L32.0003 5.17881L40.7701 13.1699C41.2867 13.6406 42.0323 13.7619 42.6714 13.4798C43.3105 13.1974 43.7229 12.5643 43.7229 11.8656V8.65389H52.395V22.9831C52.395 23.4796 52.604 23.953 52.9711 24.2874L57.7527 28.6444H52.8554Z" fill="black"/>
</g>
</g>
<defs>
<filter id="filter0_d" x="0" y="0" width="64" height="64" filterUnits="userSpaceOnUse" color-interpolation-filters="sRGB">
<feFlood flood-opacity="0" result="BackgroundImageFix"/>
<feColorMatrix in="SourceAlpha" type="matrix" values="0 0 0 0 0 0 0 0 0 0 0 0 0 0 0 0 0 0 127 0"/>
<feOffset dy="2"/>
<feGaussianBlur stdDeviation="1"/>
<feColorMatrix type="matrix" values="0 0 0 0 0.482353 0 0 0 0 0.588235 0 0 0 0 0.188235 0 0 0 0.8 0"/>
<feBlend mode="normal" in2="BackgroundImageFix" result="effect1_dropShadow"/>
<feBlend mode="normal" in="SourceGraphic" in2="effect1_dropShadow" result="shape"/>
</filter>
<clipPath id="clip0">
<rect x="2" width="60" height="60" fill="white"/>
</clipPath>
</defs>
</svg>
