<svg width="60" height="64" viewBox="0 0 60 64" fill="none" xmlns="http://www.w3.org/2000/svg">
<g filter="url(#filter0_d)">
<g clip-path="url(#clip0)">
<path d="M43.3442 48.0242C43.3442 50.4922 41.3364 52.5 38.8684 52.5C36.4004 52.5 34.3926 50.4922 34.3926 48.0242C34.3926 46.249 35.4313 44.7121 36.9329 43.9889V25.7661C36.9329 24.6971 37.7994 23.8306 38.8684 23.8306C39.9374 23.8306 40.8039 24.6971 40.8039 25.7661V43.9889C42.3054 44.7121 43.3442 46.249 43.3442 48.0242ZM56.2877 8.70968C56.2877 9.77867 55.4212 10.6452 54.3523 10.6452H46.9732V18.871H51.9329C53.0019 18.871 53.8684 19.7375 53.8684 20.8065C53.8684 21.8754 53.0019 22.7419 51.9329 22.7419H46.9732V30.9677H49.5135C50.5825 30.9677 51.449 31.8342 51.449 32.9032C51.449 33.9722 50.5825 34.8387 49.5135 34.8387H46.9732V39.2069C49.4448 41.4716 50.8442 44.6338 50.8442 48.0242C50.8442 54.6277 45.4719 60 38.8684 60C32.2649 60 26.8926 54.6277 26.8926 48.0242C26.8926 44.6341 28.2921 41.4717 30.7635 39.2069V8.10484C30.7635 3.63581 34.3994 0 38.8684 0C42.8842 0 46.2253 2.93625 46.8622 6.77419H54.3523C55.4212 6.77419 56.2877 7.64069 56.2877 8.70968ZM46.9732 48.0242C46.9732 45.5082 45.8342 43.1776 43.848 41.6298C43.3773 41.2632 43.1023 40.6998 43.1023 40.1032V8.10484C43.1023 5.77028 41.2029 3.87097 38.8684 3.87097C36.5338 3.87097 34.6345 5.77028 34.6345 8.10484V40.1032C34.6345 40.6998 34.3594 41.2632 33.8888 41.6298C31.9026 43.1776 30.7635 45.5084 30.7635 48.0242C30.7635 52.4932 34.3994 56.129 38.8684 56.129C43.3374 56.129 46.9732 52.4932 46.9732 48.0242ZM7.59497 9.29927C7.48984 7.8098 8.11307 6.1777 9.44722 4.44835C10.1002 3.60206 9.94343 2.38669 9.09702 1.73371C8.25073 1.0806 7.03525 1.23726 6.38239 2.08391C4.45077 4.58746 3.5596 7.10673 3.73355 9.57169C4.0148 13.5573 6.76549 15.0402 7.00186 17.825C7.1296 19.3306 6.5596 20.9687 5.30759 22.6938C4.37384 23.9804 5.31013 25.7663 6.87243 25.7663C7.47122 25.7663 8.06178 25.4892 8.44041 24.9675C10.2538 22.4688 11.0676 19.9556 10.859 17.4976C10.5195 13.4983 7.78634 12.0109 7.59497 9.29927ZM17.2724 9.29927C17.1673 7.8098 17.7905 6.1777 19.1246 4.44835C19.7776 3.60206 19.6209 2.38669 18.7744 1.73371C17.9281 1.0806 16.7128 1.23726 16.0598 2.08391C14.1282 4.58746 13.237 7.10673 13.411 9.57169C13.6922 13.5573 16.4429 15.0402 16.6793 17.825C16.807 19.3306 16.237 20.9687 14.985 22.6938C14.0513 23.9804 14.9875 25.7663 16.5498 25.7663C17.1486 25.7663 17.7392 25.4892 18.1178 24.9675C19.9313 22.4688 20.745 19.9556 20.5365 17.4976C20.1969 13.4983 17.4638 12.0109 17.2724 9.29927Z" fill="black"/>
</g>
</g>
<defs>
<filter id="filter0_d" x="-2" y="0" width="64" height="64" filterUnits="userSpaceOnUse" color-interpolation-filters="sRGB">
<feFlood flood-opacity="0" result="BackgroundImageFix"/>
<feColorMatrix in="SourceAlpha" type="matrix" values="0 0 0 0 0 0 0 0 0 0 0 0 0 0 0 0 0 0 127 0"/>
<feOffset dy="2"/>
<feGaussianBlur stdDeviation="1"/>
<feColorMatrix type="matrix" values="0 0 0 0 0.482353 0 0 0 0 0.588235 0 0 0 0 0.188235 0 0 0 0.8 0"/>
<feBlend mode="normal" in2="BackgroundImageFix" result="effect1_dropShadow"/>
<feBlend mode="normal" in="SourceGraphic" in2="effect1_dropShadow" result="shape"/>
</filter>
<clipPath id="clip0">
<rect width="60" height="60" fill="white"/>
</clipPath>
</defs>
</svg>
